<svg xmlns="http://www.w3.org/2000/svg" version="1.1" xmlns:xlink="http://www.w3.org/1999/xlink" xmlns:svgjs="http://svgjs.dev/svgjs" width="1500" height="1500" viewBox="0 0 1500 1500"><rect width="1500" height="1500" fill="#000000"></rect><g transform="matrix(0.6666666666666666,0,0,0.6666666666666666,249.39393939393938,471.48906955134873)"><svg viewBox="0 0 396 220" data-background-color="#2f5651" preserveAspectRatio="xMidYMid meet" height="833" width="1500" xmlns="http://www.w3.org/2000/svg" xmlns:xlink="http://www.w3.org/1999/xlink"><g id="tight-bounds" transform="matrix(1,0,0,1,0.2400000000000091,0.33446224256294954)"><svg viewBox="0 0 395.52 219.3310755148741" height="219.3310755148741" width="395.52"><g><svg viewBox="0 0 395.52 219.3310755148741" height="219.3310755148741" width="395.52"><g><svg viewBox="0 0 395.52 219.3310755148741" height="219.3310755148741" width="395.52"><g id="textblocktransform"><svg viewBox="0 0 395.52 219.3310755148741" height="219.3310755148741" width="395.52" id="textblock"><g><svg viewBox="0 0 395.52 219.3310755148741" height="219.3310755148741" width="395.52"><g transform="matrix(1,0,0,1,0,0)"><svg width="395.52" viewBox="1.15 -36.35 65.55 36.35" height="219.3310755148741" data-palette-color="#dae8d5"><path d="M9.65 0L9.65 0Q9 0 9-0.7L9-0.7Q9-1.45 9.65-1.45L9.65-1.45Q12.45-1.45 13.4-2.25 14.35-3.05 14.35-4.5L14.35-4.5 14.35-33.7Q14.35-34.75 13.3-34.75L13.3-34.75 10.3-34.75Q8.4-34.75 7.05-33.88 5.7-33 4.8-31.68 3.9-30.35 3.35-29.05 2.8-27.75 2.5-26.85L2.5-26.85Q2.4-26.55 2.2-26.5 2-26.45 1.65-26.5L1.65-26.5Q1.6-26.5 1.55-26.5L1.55-26.5Q1.25-26.55 1.2-26.73 1.15-26.9 1.15-27.1L1.15-27.1Q1.15-27.3 1.2-28.4 1.25-29.5 1.33-30.9 1.4-32.3 1.45-33.5 1.5-34.7 1.5-35.15L1.5-35.15Q1.5-36.3 2.8-36.3L2.8-36.3Q3.05-36.3 4.95-36.25 6.85-36.2 10.08-36.18 13.3-36.15 17.5-36.15L17.5-36.15Q21.7-36.15 24.93-36.18 28.15-36.2 30.1-36.25 32.05-36.3 32.3-36.3L32.3-36.3Q33.5-36.3 33.55-35.1L33.55-35.1Q33.55-34.75 33.63-33.58 33.7-32.4 33.75-30.98 33.8-29.55 33.85-28.43 33.9-27.3 33.9-27.1L33.9-27.1Q33.9-26.8 33.85-26.68 33.8-26.55 33.4-26.5L33.4-26.5Q33.35-26.5 33.25-26.45L33.25-26.45Q33.05-26.45 32.9-26.48 32.75-26.5 32.55-26.9L32.55-26.9Q32.15-27.75 31.58-29.05 31-30.35 30.13-31.65 29.25-32.95 27.95-33.85 26.65-34.75 24.75-34.75L24.75-34.75 21.45-34.75Q21-34.75 20.68-34.58 20.35-34.4 20.35-33.7L20.35-33.7 20.35-4.5Q20.35-3.65 20.63-2.95 20.9-2.25 21.88-1.85 22.85-1.45 24.9-1.45L24.9-1.45Q25.65-1.45 25.65-0.7L25.65-0.7Q25.65 0 24.9 0L24.9 0Q24.4 0 22.43-0.08 20.45-0.15 17.35-0.15L17.35-0.15Q14.25-0.15 12.23-0.08 10.2 0 9.65 0ZM65.05 0L65.05 0Q64.95 0 64.4 0L64.4 0Q63.2-0.05 59.95-0.13 56.7-0.2 51.5-0.15L51.5-0.15 38.25 0Q37.25 0 37.12-0.6 37-1.2 37.5-2.05L37.5-2.05Q38-2.95 39.32-5.05 40.65-7.15 42.47-10 44.3-12.85 46.37-16.03 48.45-19.2 50.45-22.28 52.45-25.35 54.12-27.93 55.8-30.5 56.9-32.1 58-33.7 58.15-33.9L58.15-33.9Q58.45-34.3 58.3-34.5 58.15-34.7 57.65-34.7L57.65-34.7 48.6-34.7Q46.1-34.7 44.4-33.48 42.7-32.25 41.65-30.5 40.6-28.75 40.05-27.25L40.05-27.25Q40-27.05 39.82-26.88 39.65-26.7 39.25-26.75L39.25-26.75Q38.9-26.8 38.8-27.05 38.7-27.3 38.7-27.5L38.7-27.5Q38.7-27.65 38.75-28.63 38.8-29.6 38.85-30.93 38.9-32.25 38.95-33.4 39-34.55 39.05-35.05L39.05-35.05Q39.1-36.35 40.4-36.35L40.4-36.35Q40.65-36.35 41.75-36.3 42.85-36.25 45.25-36.23 47.65-36.2 51.85-36.2L51.85-36.2 64.8-36.2Q65.65-36.2 65.9-35.55 66.15-34.9 65.65-34.15L65.65-34.15Q65.5-33.9 64.55-32.48 63.6-31.05 62.15-28.78 60.7-26.5 58.9-23.78 57.1-21.05 55.2-18.13 53.3-15.2 51.5-12.48 49.7-9.75 48.25-7.53 46.8-5.3 45.87-3.93 44.95-2.55 44.8-2.35L44.8-2.35Q44.6-2.05 44.7-1.83 44.8-1.6 45.15-1.6L45.15-1.6 57.55-1.6Q59.6-1.6 60.95-2.55 62.3-3.5 63.15-4.9 64-6.3 64.5-7.68 65-9.05 65.3-9.9L65.3-9.9Q65.45-10.35 66.2-10.35L66.2-10.35Q66.55-10.35 66.62-10.13 66.7-9.9 66.7-9.65L66.7-9.65Q66.7-9.5 66.65-8.35 66.6-7.2 66.55-5.7 66.5-4.2 66.42-2.93 66.35-1.65 66.35-1.25L66.35-1.25Q66.3 0 65.05 0Z" opacity="1" transform="matrix(1,0,0,1,0,0)" fill="#ffffff" class="wordmark-text-0" data-fill-palette-color="primary" id="text-0"></path></svg></g></svg></g></svg></g></svg></g></svg></g><defs></defs></svg><rect width="395.52" height="219.3310755148741" fill="none" stroke="none" visibility="hidden"></rect></g></svg></g></svg>