<svg xmlns="http://www.w3.org/2000/svg" fill="none" viewBox="0 0 1024 1024"><style>@media (prefers-color-scheme:light){.bg-path{fill:#eaf4ea}.fg-path{fill:#2f5651}}</style><g clip-path="url(#clip0_213_21)"><path fill="#2F5651" d="M1024 0H0v1024h1024z" class="bg-path"/><g clip-path="url(#clip1_213_21)"><g clip-path="url(#clip2_213_21)"><g clip-path="url(#clip3_213_21)"><g clip-path="url(#clip4_213_21)"><g clip-path="url(#clip5_213_21)"><g clip-path="url(#clip6_213_21)"><g clip-path="url(#clip7_213_21)"><path fill="#EAF4EA" d="M381.644 710.327h-89.577q-10.506 0-15.15-4.756-4.756-4.644-4.756-15.15V418.925h-81.283q-10.506 0-15.15-4.755-4.756-4.645-4.756-15.151v-66.906q0-10.507 4.756-15.262 4.644-4.644 15.15-4.644h291.955q10.506 0 15.261 4.644 4.645 4.755 4.645 15.262v66.906q0 10.506-4.645 15.151-4.755 4.755-15.261 4.755H401.55v271.496q0 10.506-4.644 15.15-4.756 4.756-15.262 4.756m450.65 0h-274.26q-10.506 0-15.262-4.756-4.644-4.644-4.644-15.15v-74.095q0-10.506 3.317-18.579 3.318-7.962 10.506-15.703l134.366-163.119h-118.33q-10.506 0-15.262-4.755-4.644-4.645-4.644-15.151v-66.906q0-10.507 4.644-15.262 4.756-4.644 15.262-4.644h254.354q10.506 0 15.151 4.644 4.755 4.755 4.755 15.262v82.388q0 11.059-3.317 19.022-3.318 8.073-10.506 15.814L700.14 604.714h132.154q10.506 0 15.151 4.645 4.755 4.755 4.755 15.261v65.801q0 10.506-4.755 15.15-4.645 4.756-15.151 4.756" class="fg-path"/></g></g></g></g></g></g></g></g><defs><clipPath id="clip0_213_21"><rect width="1024" height="1024" fill="#fff" rx="229"/></clipPath><clipPath id="clip1_213_21"><path fill="#fff" d="M170.253 311.473H852.92v399.588H170.253z"/></clipPath><clipPath id="clip2_213_21"><path fill="#fff" d="M170.972 312.207H852.2v398.12H170.972z"/></clipPath><clipPath id="clip3_213_21"><path fill="#fff" d="M170.972 312.207H852.2v398.12H170.972z"/></clipPath><clipPath id="clip4_213_21"><path fill="#fff" d="M170.972 312.207H852.2v398.12H170.972z"/></clipPath><clipPath id="clip5_213_21"><path fill="#fff" d="M170.972 312.207H852.2v398.12H170.972z"/></clipPath><clipPath id="clip6_213_21"><path fill="#fff" d="M170.972 312.207H852.2v398.12H170.972z"/></clipPath><clipPath id="clip7_213_21"><path fill="#fff" d="M170.972 312.207H852.2v398.12H170.972z"/></clipPath></defs></svg>