<svg width="1024" height="1024" viewBox="0 0 1024 1024" fill="none" xmlns="http://www.w3.org/2000/svg">
<g clip-path="url(#clip0_204_39)">
<path d="M1024 0H0V1024H1024V0Z" fill="#2F5651"/>
<g clip-path="url(#clip1_204_39)">
<g clip-path="url(#clip2_204_39)">
<g clip-path="url(#clip3_204_39)">
<g clip-path="url(#clip4_204_39)">
<g clip-path="url(#clip5_204_39)">
<g clip-path="url(#clip6_204_39)">
<g clip-path="url(#clip7_204_39)">
<path d="M381.644 710.326H292.067C285.063 710.326 280.013 708.741 276.916 705.571C273.746 702.475 272.161 697.424 272.161 690.42V418.925H190.878C183.874 418.925 178.824 417.339 175.727 414.169C172.557 411.073 170.972 406.023 170.972 399.019V332.112C170.972 325.108 172.557 320.021 175.727 316.851C178.824 313.754 183.874 312.206 190.878 312.206H482.833C489.837 312.206 494.924 313.754 498.094 316.851C501.191 320.021 502.739 325.108 502.739 332.112V399.019C502.739 406.023 501.191 411.073 498.094 414.169C494.924 417.339 489.837 418.925 482.833 418.925H401.55V690.42C401.55 697.424 400.002 702.475 396.905 705.571C393.735 708.741 388.648 710.326 381.644 710.326ZM832.294 710.326H558.033C551.03 710.326 545.942 708.741 542.772 705.571C539.676 702.475 538.127 697.424 538.127 690.42V616.326C538.127 609.322 539.233 603.129 541.445 597.747C543.657 592.439 547.159 587.204 551.951 582.043L686.317 418.925H567.986C560.983 418.925 555.895 417.339 552.725 414.169C549.629 411.073 548.08 406.023 548.08 399.019V332.112C548.08 325.108 549.629 320.021 552.725 316.851C555.895 313.754 560.983 312.206 567.986 312.206H822.341C829.345 312.206 834.395 313.754 837.492 316.851C840.662 320.021 842.247 325.108 842.247 332.112V414.501C842.247 421.874 841.141 428.214 838.929 433.522C836.718 438.904 833.216 444.176 828.423 449.337L700.14 604.714H832.294C839.298 604.714 844.348 606.262 847.445 609.359C850.615 612.529 852.2 617.616 852.2 624.62V690.42C852.2 697.424 850.615 702.475 847.445 705.571C844.348 708.741 839.298 710.326 832.294 710.326Z" fill="#EAF4EA"/>
</g>
</g>
</g>
</g>
</g>
</g>
</g>
</g>
<defs>
<clipPath id="clip0_204_39">
<rect width="1024" height="1024" rx="229" fill="white"/>
</clipPath>
<clipPath id="clip1_204_39">
<rect width="682.667" height="399.588" fill="white" transform="translate(170.253 311.473)"/>
</clipPath>
<clipPath id="clip2_204_39">
<rect width="681.228" height="398.12" fill="white" transform="translate(170.972 312.206)"/>
</clipPath>
<clipPath id="clip3_204_39">
<rect width="681.228" height="398.12" fill="white" transform="translate(170.972 312.206)"/>
</clipPath>
<clipPath id="clip4_204_39">
<rect width="681.228" height="398.12" fill="white" transform="translate(170.972 312.206)"/>
</clipPath>
<clipPath id="clip5_204_39">
<rect width="681.228" height="398.12" fill="white" transform="translate(170.972 312.206)"/>
</clipPath>
<clipPath id="clip6_204_39">
<rect width="681.228" height="398.12" fill="white" transform="translate(170.972 312.206)"/>
</clipPath>
<clipPath id="clip7_204_39">
<rect width="681.228" height="398.12" fill="white" transform="translate(170.972 312.206)"/>
</clipPath>
</defs>
</svg>
