<svg xmlns="http://www.w3.org/2000/svg" version="1.1" xmlns:xlink="http://www.w3.org/1999/xlink" xmlns:svgjs="http://svgjs.dev/svgjs" width="1500" height="1500" viewBox="0 0 1500 1500"><rect width="1500" height="1500" fill="#ffffff"></rect><g transform="matrix(0.6666666666666666,0,0,0.6666666666666666,249.39393939393938,456.2586057620542)"><svg viewBox="0 0 396 232" data-background-color="#2f5651" preserveAspectRatio="xMidYMid meet" height="878" width="1500" xmlns="http://www.w3.org/2000/svg" xmlns:xlink="http://www.w3.org/1999/xlink"><g id="tight-bounds" transform="matrix(1,0,0,1,0.2400000000000091,0.4259740259740141)"><svg viewBox="0 0 395.52 231.14805194805197" height="231.14805194805197" width="395.52"><g><svg viewBox="0 0 395.52 231.14805194805197" height="231.14805194805197" width="395.52"><g><svg viewBox="0 0 395.52 231.14805194805197" height="231.14805194805197" width="395.52"><g id="textblocktransform"><svg viewBox="0 0 395.52 231.14805194805197" height="231.14805194805197" width="395.52" id="textblock"><g><svg viewBox="0 0 395.52 231.14805194805197" height="231.14805194805197" width="395.52"><g transform="matrix(1,0,0,1,0,0)"><svg width="395.52" viewBox="1.4 -36 61.6 36" height="231.14805194805197" data-palette-color="#eaf4ea"><path d="M20.45 0L20.45 0 12.35 0Q11.4 0 10.98-0.43 10.55-0.85 10.55-1.8L10.55-1.8 10.55-26.35 3.2-26.35Q2.25-26.35 1.83-26.78 1.4-27.2 1.4-28.15L1.4-28.15 1.4-34.2Q1.4-35.15 1.83-35.58 2.25-36 3.2-36L3.2-36 29.6-36Q30.55-36 30.98-35.58 31.4-35.15 31.4-34.2L31.4-34.2 31.4-28.15Q31.4-27.2 30.98-26.78 30.55-26.35 29.6-26.35L29.6-26.35 22.25-26.35 22.25-1.8Q22.25-0.85 21.83-0.43 21.4 0 20.45 0ZM61.2 0L61.2 0 36.4 0Q35.45 0 35.02-0.43 34.6-0.85 34.6-1.8L34.6-1.8 34.6-8.5Q34.6-9.45 34.9-10.18 35.2-10.9 35.85-11.6L35.85-11.6 48-26.35 37.3-26.35Q36.35-26.35 35.92-26.78 35.5-27.2 35.5-28.15L35.5-28.15 35.5-34.2Q35.5-35.15 35.92-35.58 36.35-36 37.3-36L37.3-36 60.3-36Q61.25-36 61.67-35.58 62.1-35.15 62.1-34.2L62.1-34.2 62.1-26.75Q62.1-25.75 61.8-25.03 61.5-24.3 60.85-23.6L60.85-23.6 49.25-9.55 61.2-9.55Q62.15-9.55 62.57-9.13 63-8.7 63-7.75L63-7.75 63-1.8Q63-0.85 62.57-0.43 62.15 0 61.2 0Z" opacity="1" transform="matrix(1,0,0,1,0,0)" fill="#000000" class="wordmark-text-0" data-fill-palette-color="primary" id="text-0"></path></svg></g></svg></g></svg></g></svg></g><g></g></svg></g><defs></defs></svg><rect width="395.52" height="231.14805194805197" fill="none" stroke="none" visibility="hidden"></rect></g></svg></g></svg>