<svg viewBox="0 0 2000 1171" fill="currentColor" xmlns="http://www.w3.org/2000/svg">
  <path d="M617.99 1166.7H355.483C334.957 1166.7 320.157 1162.05 311.083 1152.76C301.793 1143.69 297.148 1128.89 297.148 1108.37V312.74H58.9463C38.421 312.74 23.6212 308.095 14.5469 298.805C5.25652 289.73 0.611328 274.931 0.611328 254.405V58.335C0.611328 37.8097 5.25652 22.9018 14.5469 13.6114C23.6212 4.53711 38.421 0 58.9463 0H914.526C935.052 0 949.959 4.53711 959.25 13.6114C968.324 22.9018 972.861 37.8097 972.861 58.335V254.405C972.861 274.931 968.324 289.73 959.25 298.805C949.959 308.095 935.052 312.74 914.526 312.74H676.325V1108.37C676.325 1128.89 671.788 1143.69 662.713 1152.76C653.423 1162.05 638.515 1166.7 617.99 1166.7ZM1938.63 1166.7H1134.9C1114.38 1166.7 1099.47 1162.05 1090.18 1152.76C1081.1 1143.69 1076.57 1128.89 1076.57 1108.37V891.229C1076.57 870.704 1079.81 852.555 1086.29 836.783C1092.77 821.227 1103.03 805.887 1117.08 790.763L1510.84 312.74H1164.07C1143.54 312.74 1128.64 308.095 1119.35 298.805C1110.27 289.73 1105.74 274.931 1105.74 254.405V58.335C1105.74 37.8097 1110.27 22.9018 1119.35 13.6114C1128.64 4.53711 1143.54 0 1164.07 0H1909.46C1929.99 0 1944.79 4.53711 1953.86 13.6114C1963.15 22.9018 1967.8 37.8097 1967.8 58.335V299.777C1967.8 321.383 1964.56 339.963 1958.07 355.519C1951.59 371.291 1941.33 386.739 1927.29 401.863L1551.35 857.2H1938.63C1959.15 857.2 1973.95 861.738 1983.03 870.812C1992.32 880.102 1996.96 895.01 1996.96 915.535V1108.37C1996.96 1128.89 1992.32 1143.69 1983.03 1152.76C1973.95 1162.05 1959.15 1166.7 1938.63 1166.7Z"/>
</svg>
